<svg xmlns="http://www.w3.org/2000/svg" id="Calque_1" data-name="Calque 1" viewBox="0 0 1056.66 1181.89"><defs><style>      .cls-1 {        fill: #092966;      }      .cls-2 {        fill: #fff;      }    </style></defs><path class="cls-1" d="M527.53,1137.6c493.73-282.06,502.27-654.91,490.19-868.14-255.33-11.94-490.19-225.16-490.19-225.16,0,0-235.01,213.3-490.32,225.24-12.08,213.22-3.4,585.99,490.32,868.06"></path><path class="cls-1" d="M510.82,1171.85c-118.8-67.87-218.18-145.83-295.37-231.72-67.2-74.77-119.27-157.42-154.75-245.66-29.35-72.98-47.59-148.87-55.79-232.03C-2.42,387.93-.12,321.02,2.71,271.05l1.8-31.88,31.9-1.49c54.46-2.55,112.76-15.3,173.27-37.91,49.15-18.36,99.78-43.2,150.49-73.83,86.06-51.97,143.87-103.86,144.44-104.37l23.78-21.56,23.79,21.59c.56.5,58.46,52.44,144.35,104.31,50.69,30.61,101.31,55.44,150.44,73.8,60.5,22.6,118.79,35.35,173.25,37.9l31.89,1.49,1.81,31.88c2.83,49.99,5.14,116.92-2.18,191.4-8.18,83.18-26.41,159.08-55.74,232.06-35.46,88.25-87.52,170.91-154.71,245.69-77.18,85.9-176.56,163.87-295.36,231.74l-17.57,10.04-17.56-10.04ZM71.91,305.93c-2.17,54.77-1.03,103.79,3.48,149.57,7.52,76.38,24.21,145.9,51.01,212.55,32.38,80.53,80.06,156.14,141.72,224.74,68.29,75.99,155.84,145.73,260.27,207.37,104.42-61.63,191.96-131.38,260.24-207.38,61.64-68.6,109.3-144.22,141.67-224.76,26.79-66.65,43.46-136.19,50.97-212.58,4.5-45.78,5.64-94.8,3.46-149.59-52.29-5.63-107.04-19.05-162.87-39.93-53.3-19.94-107.96-46.75-162.45-79.7-59.59-36.03-105.72-71.36-131.03-91.98-25.32,20.62-71.47,55.97-131.1,92.01-54.51,32.96-109.18,59.78-162.49,79.73-55.85,20.89-110.6,34.32-162.89,39.94Z"></path><path class="cls-1" d="M515.79,1163.17c-117.87-67.34-216.42-144.63-292.9-229.72-66.42-73.9-117.87-155.55-152.91-242.7-28.99-72.08-47.01-147.08-55.11-229.28-7.27-73.83-4.98-140.24-2.17-189.85l1.29-22.88,22.89-1.07c55.5-2.6,114.82-15.56,176.3-38.53,49.72-18.58,100.92-43.69,152.16-74.64,87.25-52.69,145.4-104.99,145.98-105.51l17.07-15.48,17.07,15.49c.57.51,58.74,52.83,145.9,105.47,51.22,30.93,102.4,56.03,152.11,74.61,61.47,22.97,120.78,35.93,176.29,38.52l22.89,1.07,1.3,22.88c2.81,49.63,5.11,116.06-2.15,189.86-8.08,82.22-26.09,157.22-55.06,229.31-35.03,87.16-86.46,168.83-152.87,242.74-76.47,85.1-175.01,162.4-292.88,229.74l-12.61,7.2-12.6-7.2ZM62.29,296.84c-1.83,40.27-2.98,97.32,3.15,159.64,7.62,77.33,24.52,147.76,51.69,215.3,32.82,81.62,81.12,158.23,143.56,227.69,70.1,78,160.15,149.4,267.7,212.28,107.55-62.88,197.59-134.29,267.68-212.29,62.42-69.47,110.71-146.08,143.51-227.72,27.15-67.55,44.04-137.98,51.64-215.33,6.13-62.31,4.97-119.38,3.13-159.66-54.04-4.94-110.83-18.45-168.99-40.21-52.72-19.72-106.81-46.27-160.78-78.9-64.28-38.86-112.7-76.85-136.2-96.36-23.51,19.51-71.95,57.52-136.27,96.4-53.98,32.64-108.09,59.19-160.82,78.92-58.17,21.76-114.97,35.27-169.01,40.22Z"></path><path class="cls-2" d="M519.26,1157.09c-117.22-66.97-215.18-143.79-291.16-228.32-65.87-73.29-116.88-154.25-151.62-240.64-28.74-71.46-46.61-145.83-54.64-227.36-7.22-73.35-4.94-139.41-2.15-188.77l.94-16.57,16.58-.78c56.23-2.63,116.26-15.74,178.42-38.97,50.13-18.73,101.72-44.03,153.33-75.2,87.78-53.01,146.47-105.79,147.06-106.32l12.38-11.22,12.37,11.22c.6.54,59.53,53.46,146.99,106.27,51.59,31.16,103.16,56.45,153.28,75.17,62.15,23.22,122.18,36.33,178.41,38.96l16.58.77.94,16.57c2.8,49.38,5.08,115.46-2.13,188.78-8.02,81.55-25.87,155.92-54.59,227.38-34.72,86.4-85.72,167.37-151.58,240.67-75.97,84.55-173.92,161.37-291.14,228.34l-9.13,5.22-9.13-5.22ZM523.92,75.91c-23.06,19.14-71.32,57.04-135.42,95.8-53.61,32.41-107.32,58.78-159.66,78.36-57.54,21.53-113.79,34.92-167.19,39.8l-6.08.56-.28,6.1c-2.69,59.1-1.65,111.65,3.18,160.65,7.68,78,24.74,149.06,52.16,217.23,33.13,82.38,81.86,159.68,144.85,229.76,70.57,78.52,161.2,150.4,269.38,213.65l3.53,2.07,3.53-2.07c108.17-63.25,198.8-135.13,269.36-213.66,62.97-70.08,111.69-147.39,144.8-229.79,27.4-68.17,44.44-139.24,52.11-217.25,4.82-48.99,5.85-101.54,3.16-160.66l-.28-6.1-6.08-.56c-53.41-4.89-109.65-18.27-167.17-39.79-52.31-19.57-106.01-45.92-159.61-78.33-64.06-38.73-112.3-76.62-135.35-95.76l-4.47-3.71-4.47,3.71Z"></path><g><path class="cls-2" d="M612.7,485.98c.07,13.64,2.34,72.55,1.53,109.19-1.77,80.51-64.08,330.32-143.48,149.67-21.21-1.94-42.24-4.15-63.59-5.81-1.04-.06-4.76-.29-4.76-.29,18.32,54.14,69.59,131.19,133.58,127.76,2.79-.15,5.24-.76,8.17-1.63,133.88-39.82,104.84-219.21,191.8-307.38v-13.36c-11.04-10.7-20.1-23.2-28.01-36.35-3.86-5.58-6.93-12.4-11.14-18.33,0,0-84.26-11.46-84.26-11.46"></path><path class="cls-2" d="M584.99,649.4c-68.3,5.14-138.32,3.01-205.04-13.31-34.22-8.37-78.47-23.01-105.15-46.54-32.47-28.64-28.42-58.22,4.37-84.05,18.41-14.51,40.25-23.49,61.38-33.19,8-19.39,14.26-36.02,21.13-55.85,3.07-8.86,7.94-20.77,10.17-29.81-67.62,13.33-143.51,37.36-191.03,89.92-49.39,54.62-35.24,117.75,19.12,161.41,89.07,71.54,247.88,94.21,358.36,83.88,3.48-.33,5.42-.26,10.14-.91,6.12-19.89,10.72-40.32,14.77-60.75"></path><path class="cls-2" d="M901.77,586.83l-28.89-19c-29.36,24.78-65.91,42.2-102.88,52.54-18.73,5.23-37.86,8.81-56.84,13.02-10.15,24.6-20.12,49.4-26.83,75.24l-.26.91c2.77-.69,7.23-1.68,9.81-2.4,18.79-5.2,37.49-9.19,56.27-15.73,9.28-3.23,16.31-6.31,24.13-8.88,15.61-5.14,29.93.8,34.26,17.07l10.91,2.32c24.19-39.54,52.08-78.36,80.31-115.08,0,0,.51.52,0,0Z"></path><path class="cls-2" d="M499.89,373.12c-1.58.08-8.64.7-9.25,1.19-7.04,23.41-12.02,47.81-16.21,71.89,122.8-6.78,292.3,2.16,393.74,77.62,1.19,1.04,1.53,1.37,3.31,2.82l27.92-18.51.49-.33c-27.86-37.07-56.7-75.31-79.71-115.58l-11.62,2.71c-7.67,34.16-41.19,14.69-62.65,6.77-78.39-25.47-164.26-31.9-246.01-28.58Z"></path><path class="cls-2" d="M320.67,557.37c12.99,13.32,23.07,28.73,31.67,45.22,25.06,7.84,65.74,13.57,91.98,17.96-7.42-82.9-3.3-161.43,19.97-241.26,18.33-72.89,73.44-132.63,116.18-33.1,23.27,1.49,46.53,3.23,69.61,6.7-50.37-118.23-140.41-168.79-222.97-42.67-43.83,74.31-43.16,170.64-106.46,234.36v12.8Z"></path></g><g><path class="cls-2" d="M455.12,946.88h-10.58l5.07-8.64h14.74v61.2h-9.24v-52.56Z"></path><path class="cls-2" d="M491.47,1001.54l-6.78-5.03,14.62-19.94c-.79.11-1.47.18-2.02.24-.55.05-1,.08-1.35.08-4.94,0-9.22-1.89-12.84-5.67-3.59-3.75-5.39-8.27-5.39-13.56,0-5.63,2-10.44,5.98-14.43,4.02-4.02,8.83-6.02,14.43-6.02s10.42,1.98,14.55,5.95c4.12,3.94,6.18,8.59,6.18,13.95,0,4.76-2.01,9.9-6.02,15.42l-21.36,29.01ZM486.71,956.99c0,3.3,1.12,6.08,3.37,8.32,2.27,2.27,5.01,3.41,8.2,3.41s5.92-1.12,8.16-3.37,3.41-5.01,3.41-8.2-1.14-5.93-3.41-8.21c-2.25-2.25-4.98-3.37-8.2-3.37s-5.88,1.12-8.13,3.37c-2.27,2.27-3.41,4.96-3.41,8.05Z"></path><path class="cls-2" d="M523.37,968.44c0-9.75,2.27-17.53,6.82-23.34,4.07-5.26,9-7.89,14.78-7.89s10.71,2.63,14.78,7.89c4.54,5.81,6.82,13.73,6.82,23.74s-2.27,17.89-6.82,23.7c-4.07,5.26-8.98,7.89-14.74,7.89s-10.7-2.63-14.82-7.89c-4.54-5.81-6.82-13.85-6.82-24.1ZM532.45,968.48c0,6.79,1.18,12.43,3.53,16.92,2.35,4.41,5.35,6.62,9,6.62s6.62-2.21,9-6.62c2.38-4.39,3.57-9.92,3.57-16.61s-1.19-12.23-3.57-16.65c-2.38-4.39-5.38-6.58-9-6.58s-6.58,2.19-8.96,6.58c-2.38,4.36-3.57,9.8-3.57,16.33Z"></path><path class="cls-2" d="M598.48,936.1l6.78,5.07-14.62,19.9c.79-.11,1.47-.18,2.02-.24.55-.05.99-.08,1.31-.08,4.97,0,9.26,1.9,12.88,5.71,3.59,3.75,5.39,8.27,5.39,13.56,0,5.6-2.01,10.41-6.03,14.43-3.99,3.99-8.79,5.99-14.39,5.99s-10.41-1.97-14.59-5.91c-4.1-3.94-6.14-8.6-6.14-13.99,0-4.83,2-9.96,5.99-15.38l21.4-29.05ZM603.23,980.61c0-3.25-1.12-6-3.37-8.24-2.27-2.27-5.01-3.41-8.21-3.41s-5.96,1.12-8.2,3.37c-2.25,2.25-3.37,4.97-3.37,8.17s1.12,5.92,3.37,8.17,4.99,3.37,8.24,3.37,5.88-1.12,8.12-3.37,3.41-4.96,3.41-8.05Z"></path></g></svg>